# xmcd
#
# Track frame offsets: 
#        150
#        16670
#        34126
#        50458
#        67837
#        85729
#        102331
#        119545
#        133659
#        152154
#        166177
#        186576
#        203851
#        222744
#        240088
#        256592
#        272560
#        289576
#        311504
#        325944
#
# Disc length: 4658 seconds
#
# Revision: 0
# Processed by: cddbd v1.5.2PL0 Copyright (c) Steve Scherf et al.
# Submitted via: ExactAudioCopy v0.99pb5
#
DISCID=14123014
DTITLE=Валерия - Лучшие CD2
DYEAR=2009
DGENRE=Pop
TTITLE0=Вне игры
TTITLE1=Ты грустишь(feat.Стас Пьеха)
TTITLE2=Обо мне вспоминай
TTITLE3=Ты не со мной
TTITLE4=Перелей вода
TTITLE5=От разлуки до любви
TTITLE6=Боль! (Счастье на части)
TTITLE7=Черно-белый цвет
TTITLE8=Танец для двоих
TTITLE9=Ты поймешь
TTITLE10=Снег
TTITLE11=Страна любви
TTITLE12=Ты пришел
TTITLE13=Розовый туман
TTITLE14=Угадай
TTITLE15=Радуга-дуга
TTITLE16=С добрым утром
TTITLE17=Гаснут небеса
TTITLE18=Оправдаешь ли ты...
TTITLE19=Осени дым
EXTD=
EXTT0=
EXTT1=
EXTT2=
EXTT3=
EXTT4=
EXTT5=
EXTT6=
EXTT7=
EXTT8=
EXTT9=
EXTT10=
EXTT11=
EXTT12=
EXTT13=
EXTT14=
EXTT15=
EXTT16=
EXTT17=
EXTT18=
EXTT19=
PLAYORDER=
